<svg xmlns="http://www.w3.org/2000/svg" xmlns:xlink="http://www.w3.org/1999/xlink" width="500" zoomAndPan="magnify" viewBox="0 0 375 374.999991" height="500" preserveAspectRatio="xMidYMid meet" version="1.0"><path fill="#f97316" d="M 325.5 138.125 L 325.277344 137.90625 C 325.261719 137.890625 325.246094 137.875 325.238281 137.859375 L 187.359375 -0.0625 L 187.351562 -0.0625 L 49.46875 137.859375 C 49.453125 137.875 49.445312 137.898438 49.429688 137.90625 L 49.203125 138.125 L 49.210938 138.125 C -2.878906 190.519531 -2.789062 275.230469 49.476562 327.519531 C 85.796875 363.851562 137.765625 374.96875 183.671875 360.890625 C 186.066406 360.15625 188.648438 360.15625 191.050781 360.890625 C 236.964844 374.96875 288.933594 363.851562 325.246094 327.519531 C 377.496094 275.230469 377.59375 190.527344 325.5 138.125 Z M 98.503906 229.074219 C 97.148438 230.433594 96.390625 232.265625 96.390625 234.191406 C 96.652344 258.132812 103.28125 282.011719 116.289062 303.066406 C 117.617188 305.21875 115.402344 307.847656 113.074219 306.867188 C 103.742188 302.945312 95.003906 297.1875 87.402344 289.585938 C 56.011719 258.191406 55.988281 207.300781 87.324219 175.863281 L 187.351562 75.808594 L 287.382812 175.863281 C 318.726562 207.300781 318.707031 258.191406 287.316406 289.585938 C 279.714844 297.1875 270.976562 302.945312 261.640625 306.867188 C 259.3125 307.847656 257.097656 305.21875 258.425781 303.066406 C 271.425781 282.003906 278.058594 258.125 278.324219 234.191406 C 278.324219 232.273438 277.5625 230.433594 276.210938 229.074219 L 228.890625 178.871094 C 226.648438 177.007812 223.527344 179.625 224.929688 182.175781 C 243.308594 215.441406 227.511719 263.222656 201.148438 289.585938 C 201.101562 289.628906 201.058594 289.675781 201.011719 289.722656 C 193.5 297.210938 181.191406 297.210938 173.6875 289.714844 C 173.644531 289.667969 173.605469 289.628906 173.558594 289.585938 C 147.199219 263.222656 131.398438 215.445312 149.785156 182.183594 C 151.195312 179.632812 148.066406 177.023438 145.824219 178.878906 Z M 98.503906 229.074219 " fill-opacity="1" fill-rule="nonzero"/></svg>